<?xml version="1.0" encoding="UTF-8"?>
<svg id="katman_2" data-name="katman 2" xmlns="http://www.w3.org/2000/svg" viewBox="0 0 320.69 80.4">
  <defs>
    <style>
      .cls-1 {
        fill: #fff;
        stroke-width: 0px;
      }
    </style>
  </defs>
  <g id="katman_1" data-name="katman 1">
    <g>
      <path class="cls-1" d="m186.27,53.84c3.51,0,6.63-.62,9.37-1.85,2.74-1.23,5.07-2.94,7-5.11,1.93-2.17,3.39-4.73,4.41-7.67,1.01-2.94,1.52-6.08,1.52-9.44,0-2.76-.43-5.16-1.3-7.18-.86-2.02-2.09-3.7-3.67-5.04-1.58-1.33-3.47-2.33-5.67-3-2.2-.67-4.6-1-7.22-1-3.41,0-6.47.63-9.18,1.89-2.72,1.26-5.02,2.98-6.93,5.15-1.9,2.17-3.36,4.7-4.37,7.59-1.01,2.89-1.52,5.96-1.52,9.22,0,5.48,1.59,9.59,4.78,12.33,3.18,2.74,7.44,4.11,12.78,4.11Zm-6.37-21.66c.44-1.85,1.11-3.57,2-5.15.89-1.58,2.04-2.9,3.44-3.96,1.41-1.06,3.07-1.59,5-1.59,2.81,0,4.8.77,5.96,2.3,1.16,1.53,1.74,3.58,1.74,6.15,0,1.63-.22,3.38-.67,5.26-.44,1.88-1.12,3.62-2.04,5.22-.91,1.6-2.07,2.94-3.48,4-1.41,1.06-3.1,1.59-5.07,1.59-1.23,0-2.32-.23-3.26-.7-.94-.47-1.73-1.1-2.37-1.89-.64-.79-1.12-1.7-1.44-2.74-.32-1.04-.48-2.12-.48-3.26,0-1.63.22-3.37.67-5.22Z"/>
      <path class="cls-1" d="m128.94,40.44v1.56c0,2.27.49,4.16,1.48,5.67.99,1.51,2.26,2.72,3.81,3.63,1.56.91,3.3,1.57,5.22,1.96,1.93.39,3.83.59,5.7.59,2.22,0,4.42-.22,6.59-.67,2.17-.44,4.12-1.18,5.85-2.22,1.73-1.04,3.12-2.38,4.18-4.04,1.06-1.65,1.59-3.67,1.59-6.04,0-1.58-.26-2.96-.78-4.15-.52-1.19-1.23-2.21-2.15-3.07-.91-.86-1.98-1.59-3.18-2.18-1.21-.59-2.53-1.11-3.96-1.56l-5.26-1.7c-1.78-.54-3.03-1.11-3.74-1.7-.72-.59-1.07-1.31-1.07-2.15,0-1.38.6-2.36,1.81-2.93,1.21-.57,2.75-.85,4.63-.85,2.07,0,3.57.46,4.48,1.37.91.91,1.39,2.18,1.44,3.81h9.78c.05-2.47-.35-4.49-1.19-6.07-.84-1.58-1.99-2.83-3.44-3.74-1.46-.91-3.15-1.54-5.07-1.89-1.93-.34-3.93-.52-6-.52-1.83,0-3.74.21-5.74.63-2,.42-3.84,1.11-5.52,2.07-1.68.96-3.05,2.21-4.11,3.74-1.06,1.53-1.59,3.43-1.59,5.7,0,1.53.18,2.81.56,3.85.37,1.04.91,1.93,1.63,2.67.72.74,1.58,1.36,2.59,1.85,1.01.49,2.18.96,3.52,1.41l8.07,2.59c1.14.4,2.05.86,2.74,1.41.69.54,1.04,1.48,1.04,2.81,0,.89-.2,1.62-.59,2.18-.4.57-.91,1.04-1.56,1.41-.64.37-1.36.63-2.15.78-.79.15-1.58.22-2.37.22-.89,0-1.79-.11-2.7-.33-.91-.22-1.73-.54-2.44-.96-.72-.42-1.3-.95-1.74-1.59-.44-.64-.67-1.41-.67-2.3v-1.26h-9.7Z"/>
      <path class="cls-1" d="m234.92,56.44c-.79,1.18-1.74,2.12-2.85,2.81-1.11.69-2.51,1.04-4.18,1.04-.84,0-1.68-.1-2.52-.3-.84-.2-1.59-.52-2.26-.96-.67-.44-1.2-1.01-1.59-1.7-.4-.69-.57-1.53-.52-2.52h-10.44c0,2.32.48,4.27,1.44,5.85.96,1.58,2.22,2.86,3.78,3.85,1.56.99,3.31,1.7,5.26,2.15,1.95.44,3.89.67,5.81.67,3.16,0,5.91-.32,8.26-.96,2.34-.64,4.37-1.63,6.07-2.96,1.7-1.33,3.1-3.04,4.18-5.11,1.09-2.07,1.95-4.54,2.59-7.41l7.63-36.29h-10.07l-1.18,5.85h-.15c-1.09-2.52-2.64-4.3-4.67-5.33-2.03-1.04-4.37-1.56-7.04-1.56-3.06,0-5.79.68-8.18,2.04-2.4,1.36-4.42,3.14-6.07,5.33-1.65,2.2-2.91,4.67-3.78,7.41-.86,2.74-1.3,5.52-1.3,8.33,0,2.37.34,4.51,1.04,6.41.69,1.9,1.67,3.54,2.93,4.93,1.26,1.38,2.8,2.44,4.63,3.18,1.83.74,3.88,1.11,6.15,1.11,4.3,0,7.8-1.8,10.52-5.41l.15.15c-.54,1.83-1.09,3.55-1.63,5.18-.54,1.63-1.21,3.04-2,4.22Zm.78-13.44c-1.41.91-3.05,1.37-4.93,1.37-1.23,0-2.3-.22-3.18-.67-.89-.44-1.63-1.06-2.22-1.85-.59-.79-1.03-1.69-1.3-2.7-.27-1.01-.41-2.09-.41-3.22,0-1.53.23-3.15.7-4.85.47-1.7,1.15-3.26,2.04-4.67.89-1.41,2-2.58,3.33-3.52,1.33-.94,2.89-1.41,4.67-1.41,2.57,0,4.47.78,5.7,2.33,1.23,1.56,1.85,3.54,1.85,5.96,0,1.63-.23,3.31-.7,5.04-.47,1.73-1.16,3.3-2.07,4.7-.91,1.41-2.07,2.57-3.48,3.48Z"/>
      <path class="cls-1" d="m97.84,36.96c0-.2.02-.42.07-.67h28.22c.39-2.12.59-4.12.59-6,0-2.76-.43-5.2-1.3-7.3-.86-2.1-2.07-3.85-3.63-5.26-1.56-1.41-3.43-2.46-5.63-3.15-2.2-.69-4.63-1.04-7.3-1.04-3.26,0-6.2.66-8.81,1.96-2.62,1.31-4.83,3.06-6.63,5.26-1.8,2.2-3.2,4.72-4.18,7.55-.99,2.84-1.48,5.79-1.48,8.85,0,2.77.41,5.18,1.22,7.26s1.96,3.81,3.44,5.22c1.48,1.41,3.27,2.46,5.37,3.15,2.1.69,4.43,1.04,7,1.04,2.76,0,5.2-.27,7.3-.81,2.1-.54,3.94-1.37,5.52-2.48,1.58-1.11,2.94-2.48,4.07-4.11,1.14-1.63,2.12-3.53,2.96-5.7h-10.52c-.4.59-.83,1.21-1.3,1.85-.47.64-1.01,1.21-1.63,1.7-.62.49-1.33.9-2.15,1.22-.81.32-1.74.48-2.78.48-2.86,0-4.99-.69-6.37-2.07-1.38-1.38-2.07-3.18-2.07-5.41v-1.55Zm2.63-10.44c.57-.99,1.27-1.85,2.11-2.59.84-.74,1.83-1.33,2.96-1.78,1.14-.44,2.44-.67,3.93-.67s2.76.23,3.7.7c.94.47,1.65,1.1,2.15,1.89.49.79.83,1.67,1,2.63.17.96.26,1.94.26,2.93h-17.55c.39-1.09.88-2.12,1.44-3.11Z"/>
      <path class="cls-1" d="m10.07,36.96c0-.2.02-.42.07-.67h28.22c.39-2.12.59-4.12.59-6,0-2.76-.43-5.2-1.3-7.3-.86-2.1-2.07-3.85-3.63-5.26-1.56-1.41-3.43-2.46-5.63-3.15-2.2-.69-4.63-1.04-7.3-1.04-3.26,0-6.2.66-8.81,1.96-2.62,1.31-4.83,3.06-6.63,5.26-1.8,2.2-3.2,4.72-4.18,7.55-.99,2.84-1.48,5.79-1.48,8.85,0,2.77.41,5.18,1.22,7.26s1.96,3.81,3.44,5.22c1.48,1.41,3.27,2.46,5.37,3.15,2.1.69,4.43,1.04,7,1.04,2.76,0,5.2-.27,7.3-.81,2.1-.54,3.94-1.37,5.52-2.48,1.58-1.11,2.94-2.48,4.07-4.11,1.14-1.63,2.12-3.53,2.96-5.7h-10.52c-.4.59-.83,1.21-1.3,1.85-.47.64-1.01,1.21-1.63,1.7-.62.49-1.33.9-2.15,1.22-.81.32-1.74.48-2.78.48-2.86,0-4.99-.69-6.37-2.07-1.38-1.38-2.07-3.18-2.07-5.41v-1.55Zm2.63-10.44c.57-.99,1.27-1.85,2.11-2.59.84-.74,1.83-1.33,2.96-1.78,1.14-.44,2.44-.67,3.93-.67s2.76.23,3.7.7c.94.47,1.65,1.1,2.15,1.89.49.79.83,1.67,1,2.63.17.96.26,1.94.26,2.93H11.26c.39-1.09.88-2.12,1.44-3.11Z"/>
      <path class="cls-1" d="m289.32,39.4c.07-.44.15-.88.22-1.3.07-.42.16-.78.26-1.07l4.67-22.44h-10.52l-4.74,22.44c-.1.35-.21.8-.33,1.37-.12.57-.25,1.17-.37,1.81-.12.64-.22,1.27-.3,1.89-.07.62-.11,1.12-.11,1.52,0,6.81,3.73,10.22,11.18,10.22,5.53,0,10-2.1,13.41-6.3h.15l-1.18,5.33h10.07l8-38.29h-10.52l-4.3,20.37c-.3,1.33-.73,2.64-1.3,3.93-.57,1.28-1.29,2.42-2.15,3.41-.86.99-1.9,1.79-3.11,2.41-1.21.62-2.6.93-4.18.93-1.23,0-2.38-.37-3.44-1.11-1.06-.74-1.59-1.68-1.59-2.81,0-.25.01-.58.04-1,.02-.42.07-.85.15-1.3Z"/>
      <path class="cls-1" d="m48.88,14.59l-7.92,38.29h10.44l4.3-20.37c.3-1.33.73-2.64,1.3-3.93.57-1.28,1.28-2.42,2.15-3.41.86-.99,1.9-1.79,3.11-2.41,1.21-.62,2.6-.93,4.18-.93,1.23,0,2.38.37,3.44,1.11,1.06.74,1.59,1.68,1.59,2.81,0,.54-.09,1.31-.26,2.3-.17.99-.31,1.78-.41,2.37l-4.67,22.44h10.52l4.74-22.44c.05-.34.14-.8.26-1.37.12-.57.25-1.17.37-1.81.12-.64.23-1.27.33-1.89.1-.62.15-1.12.15-1.52,0-6.86-3.73-10.29-11.18-10.29-5.53,0-10,2.12-13.41,6.37h-.15l1.18-5.33h-10.07Z"/>
      <polygon class="cls-1" points="256.33 52.88 266.77 52.88 278.03 0 267.51 0 256.33 52.88"/>
      <path class="cls-1" d="m250.75,60.56c-1.38.65-2.55,1.54-3.5,2.68-.96,1.14-1.68,2.45-2.18,3.94s-.75,3.08-.75,4.77c0,2.91.77,5.05,2.32,6.41,1.54,1.37,3.71,2.05,6.49,2.05,2.6,0,4.75-.67,6.45-2.01,1.7-1.34,2.95-3.25,3.77-5.72h-5.44c-.15.48-.35.95-.59,1.4-.24.45-.55.84-.92,1.17-.37.33-.79.6-1.26.8-.47.2-1.01.31-1.63.31-.69,0-1.27-.11-1.74-.34-.47-.23-.86-.54-1.17-.92s-.52-.84-.65-1.36c-.13-.52-.19-1.08-.19-1.67,0-.84.1-1.75.29-2.74.19-.98.5-1.89.94-2.74.43-.84,1.01-1.54,1.72-2.09.71-.55,1.58-.82,2.6-.82,1.22,0,2.14.26,2.74.77.6.51.9,1.35.9,2.53h5.44c-.03-1.3-.27-2.42-.75-3.37-.47-.94-1.11-1.71-1.91-2.3-.8-.59-1.74-1.02-2.81-1.3-1.07-.28-2.21-.42-3.41-.42-1.79,0-3.37.33-4.75.98Z"/>
      <polygon class="cls-1" points="232.83 79.91 238.84 79.91 240.11 74.01 234.06 74.01 232.83 79.91"/>
      <path class="cls-1" d="m272.22,60.56c-1.4.65-2.6,1.54-3.58,2.66-.98,1.12-1.74,2.43-2.26,3.92-.52,1.49-.78,3.08-.78,4.77,0,2.83.82,4.96,2.47,6.37,1.65,1.42,3.85,2.12,6.6,2.12,1.81,0,3.43-.32,4.84-.96,1.42-.64,2.62-1.52,3.62-2.64,1-1.12,1.75-2.44,2.28-3.96.52-1.52.78-3.15.78-4.88,0-1.43-.22-2.67-.67-3.71-.45-1.05-1.08-1.91-1.89-2.6-.82-.69-1.79-1.21-2.93-1.55-1.14-.34-2.38-.52-3.73-.52-1.76,0-3.34.33-4.75.98Zm8.54,7.48c0,.84-.11,1.75-.34,2.72-.23.97-.58,1.87-1.05,2.7-.47.83-1.07,1.52-1.8,2.07-.73.55-1.6.82-2.62.82-.64,0-1.2-.12-1.68-.36-.49-.24-.89-.57-1.23-.98-.33-.41-.58-.88-.75-1.42-.17-.54-.25-1.1-.25-1.68,0-.84.11-1.74.34-2.7.23-.96.57-1.84,1.03-2.66.46-.82,1.05-1.5,1.78-2.05.73-.55,1.59-.82,2.58-.82,1.45,0,2.48.4,3.08,1.19.6.79.9,1.85.9,3.18Z"/>
      <path class="cls-1" d="m312.23,79.91h5.44l2.45-11.64c.13-.59.25-1.19.38-1.82.13-.62.19-1.24.19-1.86,0-.84-.17-1.58-.5-2.22-.33-.64-.78-1.16-1.34-1.57-.56-.41-1.21-.71-1.93-.92-.73-.2-1.47-.31-2.24-.31-.64,0-1.28.08-1.93.25-.65.17-1.27.4-1.86.71-.59.31-1.14.67-1.65,1.09-.51.42-.93.89-1.26,1.4-.23-1.22-.78-2.11-1.65-2.64-.87-.54-1.91-.8-3.14-.8-1.45,0-2.77.27-3.94.8-1.17.54-2.17,1.38-2.99,2.53h-.08l.61-2.79h-5.21l-4.1,19.79h5.4l2.22-10.6c.13-.61.33-1.24.61-1.88.28-.64.63-1.22,1.05-1.74.42-.52.92-.96,1.49-1.3.57-.34,1.22-.52,1.93-.52s1.26.2,1.7.61c.45.41.67.91.67,1.49,0,.43-.05.91-.15,1.42l-2.6,12.52h5.47l2.22-10.6c.13-.61.33-1.24.61-1.88.28-.64.63-1.22,1.05-1.74.42-.52.92-.96,1.49-1.3.57-.34,1.22-.52,1.93-.52s1.26.2,1.7.61c.45.41.67.91.67,1.49,0,.43-.05.91-.15,1.42l-2.6,12.52Z"/>
    </g>
  </g>
</svg>